<?xml version="1.0" encoding="UTF-8"?>
<svg id="Full_Lockup" xmlns="http://www.w3.org/2000/svg" xmlns:xlink="http://www.w3.org/1999/xlink" version="1.1" viewBox="0 0 1920 1080">
  <!-- Generator: Adobe Illustrator 29.0.1, SVG Export Plug-In . SVG Version: 2.1.0 Build 192)  -->
  <defs>
    <style>
      .st0 {
        fill: none;
      }

      .st1 {
        fill: url(#linear-gradient);
      }

      .st2 {
        clip-path: url(#clippath);
      }
    </style>
    <clipPath id="clippath">
      <path class="st0" d="M905.27,82.09l-462.69,404.37v125.08l453.21,396.05v-109.17l.78-.78-.78-.82v-106.41c-42.86-10.92-85.35-31.69-124.79-57.45-53.91-35.28-79.66-84.53-89.97-134.43-6.64-32.68-6.76-65.69-3.87-95.45,5.48-56.38,21.72-100.8,24.48-109.01,2.39,4.99,22.05,24.98,46.2,47.35,39.61,36.51,91.29,79.66,97.88,73.4,0,0-30.29-50.9-40.1-123.97-4.66-34.45-4.82-73.73,4.82-115.1.16-.17.16-.33.16-.49,5.65-24.15,20.28-67.3,43.31-112.18,3.21-6.47,6.59-12.9,10.3-19.33,11.75-21.43,25.59-42.49,41.05-61.65ZM1003.81,72.41c-.66,3.38-1.15,6.76-1.77,10.18-5.65,33.14-7.91,63.88-7.75,92.4.16,16.9,1.28,32.97,2.88,48.42,3.54,29.8,9.85,56.54,17.72,80.36,34.78,103.98,102.08,151.62,110.12,148.9,0,0,2.27-21.27,4.2-48.96,2.72-34.12,5.15-77.89,3.05-103.65,38,18.67,107.85,107.86,117.99,209.44,2.76,27.86,1.11,56.67-7.09,85.31-20.44,71.79-81.44,142.14-213.15,191.59v216.2l447.4-391.06v-125.08L1003.81,72.41Z"/>
    </clipPath>
    <linearGradient id="linear-gradient" x1="369.46" y1="880.95" x2="1550.54" y2="199.05" gradientUnits="userSpaceOnUse">
      <stop offset=".2" stop-color="#c20106"/>
      <stop offset=".93" stop-color="#f6000a"/>
    </linearGradient>
  </defs>
  <g id="Logo">
    <g class="st2">
      <rect class="st1" x="442.58" y="72.41" width="1034.84" height="935.18"/>
    </g>
  </g>
</svg>